<svg width="400" height="71" viewBox="0 0 400 71" fill="none" xmlns="http://www.w3.org/2000/svg">
<path d="M1 2L141.265 39.0512C179.598 49.1768 219.902 49.1768 258.235 39.0512L398.5 2" stroke="#00C274" stroke-width="3"/>
<path d="M399 69L258.735 31.9488C220.402 21.8232 180.098 21.8232 141.765 31.9488L1.5 69" stroke="#00C274" stroke-width="3"/>
<path d="M1 2L82.5405 33.631C140.781 56.2234 205.722 54.0428 262.316 27.5947L266.136 25.8094C292.72 13.3856 321.444 6.18694 350.746 4.60507L399 2" stroke="#1778F2" stroke-width="3"/>
<path d="M399 69L317.459 37.369C259.219 14.7766 194.278 16.9572 137.684 43.4053L133.864 45.1906C107.28 57.6144 78.5559 64.8131 49.2545 66.3949L0.999986 69" stroke="#1778F2" stroke-width="3"/>
</svg>
