<svg width="479" height="472" viewBox="0 0 479 472" fill="none" xmlns="http://www.w3.org/2000/svg">
<g filter="url(#filter0_d_729_183)">
<path d="M262.611 65.5004H238.959C238.959 77.0264 243.185 87.5679 250.171 95.6979C254.381 92.4749 259.588 89.8236 265.492 87.964C263.657 81.3014 262.611 73.647 262.611 65.5004Z" fill="black"/>
<path d="M249.745 99.7297L247.919 97.6045C240.234 88.6569 236 77.2556 236 65.5004V62.5636H265.565V65.5004C265.565 73.0918 266.525 80.5918 268.341 87.1889L269.092 89.9084L266.383 90.7623C260.906 92.4874 255.923 94.9996 251.973 98.0232L249.745 99.7297ZM242.014 68.4359C242.588 76.8501 245.614 84.9384 250.72 91.6871C254.064 89.4532 257.826 87.5685 261.956 86.062C260.654 80.5375 259.885 74.5373 259.698 68.4365H242.014V68.4359Z" fill="#333333"/>
<path d="M265.637 42.5207C259.809 40.7002 254.655 38.1118 250.462 34.9637C243.302 43.1388 238.956 53.8122 238.956 65.5004H262.608C262.609 57.1398 263.713 49.3026 265.637 42.5207Z" fill="black"/>
<path d="M265.565 68.4358H236V65.4997C236 53.5709 240.344 42.0423 248.232 33.0358L250.044 30.9669L252.246 32.6211C256.237 35.6175 261.041 38.0071 266.525 39.7196L269.263 40.5749L268.484 43.3176C266.575 50.0445 265.566 57.7148 265.566 65.5004V68.4358H265.565ZM242.013 62.5635H259.697C259.891 56.2712 260.703 50.0955 262.083 44.422C258.023 42.9499 254.314 41.1142 251.006 38.9399C245.724 45.7655 242.596 53.9856 242.013 62.5635Z" fill="#333333"/>
<path d="M321.215 34.9637C317.022 38.1118 311.867 40.7002 306.04 42.5207C307.964 49.3019 309.068 57.1392 309.068 65.5004H331.876H309.068C309.068 73.647 308.022 81.302 306.189 87.964C312.092 89.8249 317.299 92.4749 321.51 95.6979C328.495 87.5678 332.722 77.0264 332.722 65.5004C332.721 53.8121 328.375 43.1388 321.215 34.9637Z" fill="black"/>
<path d="M321.934 99.7297L319.705 98.0238C315.754 95.0009 310.772 92.4894 305.295 90.763L302.589 89.9091L303.337 87.1895C305.153 80.5925 306.113 73.0925 306.113 65.5011C306.113 57.7175 305.104 50.0466 303.196 43.3184L302.418 40.5757L305.155 39.7204C310.638 38.0072 315.442 35.619 319.432 32.6219L321.635 30.9683L323.447 33.0373C331.335 42.0438 335.678 53.5737 335.678 65.5011C335.678 77.2562 331.446 88.6576 323.76 97.6052L321.934 99.7297ZM309.724 86.062C313.853 87.5692 317.615 89.4532 320.959 91.6871C326.064 84.9384 329.091 76.8501 329.666 68.4359H311.98C311.794 74.5374 311.025 80.5369 309.724 86.062ZM311.98 62.5636H329.666C329.083 53.9857 325.955 45.7663 320.674 38.94C317.365 41.1143 313.657 42.95 309.597 44.4221C310.976 50.0956 311.788 56.2713 311.98 62.5636Z" fill="#333333"/>
<path d="M285.838 112.063C300.124 112.063 312.91 105.708 321.509 95.6978C317.298 92.4748 312.091 89.8248 306.188 87.9639C302.231 102.329 294.603 112.063 285.838 112.063Z" fill="black"/>
<path d="M285.838 115V109.128C292.798 109.128 299.665 100.516 303.335 87.1894L304.148 84.2401L307.081 85.1655C313.297 87.1245 318.758 89.8858 323.313 93.3737L325.774 95.2572L323.757 97.6051C314.262 108.659 300.44 115 285.838 115ZM308.141 91.7473C306.203 97.7521 303.677 102.745 300.725 106.545C306.828 104.358 312.415 100.837 317.057 96.1727C314.388 94.4635 311.375 92.9676 308.141 91.7473Z" fill="#333333"/>
<path d="M285.841 112.063C277.076 112.063 269.448 102.329 265.492 87.964C259.588 89.8236 254.38 92.4749 250.171 95.6978C258.769 105.708 271.554 112.063 285.841 112.063Z" fill="black"/>
<path d="M285.839 115C271.238 115 257.417 108.659 247.92 97.6044L245.903 95.2566L248.364 93.3732C252.919 89.8838 258.381 87.1226 264.596 85.1649L267.53 84.2401L268.342 87.1882C272.011 100.515 278.88 109.126 285.839 109.126V115H285.839ZM254.62 96.1728C259.263 100.837 264.851 104.358 270.954 106.545C268.001 102.745 265.476 97.7528 263.537 91.7474C260.304 92.9664 257.29 94.4636 254.62 96.1728Z" fill="#333333"/>
<path d="M285.838 18.9375C294.497 18.9375 302.045 28.4395 306.039 42.5213C311.866 40.7008 317.021 38.1125 321.214 34.9644C312.62 25.149 299.963 18.9375 285.838 18.9375Z" fill="black"/>
<path d="M304.021 46.2293L303.194 43.317C299.498 30.2899 292.685 21.8736 285.838 21.8736V16C300.256 16 313.963 22.2088 323.445 33.0365L325.523 35.4089L322.998 37.3063C318.465 40.7088 313.058 43.4065 306.926 45.3217L304.021 46.2293ZM300.706 24.4521C303.582 28.1487 306.056 32.9743 307.974 38.7558C311.157 37.5739 314.08 36.1456 316.715 34.4894C312.138 29.9924 306.666 26.5866 300.706 24.4521Z" fill="#333333"/>
<path d="M285.839 18.9375C271.713 18.9375 259.057 25.1489 250.463 34.9636C254.656 38.1118 259.81 40.7001 265.638 42.5206C269.632 28.4402 277.181 18.9375 285.839 18.9375Z" fill="black"/>
<path d="M267.658 46.2293L264.751 45.3217C258.621 43.4065 253.213 40.7088 248.681 37.3063L246.155 35.4089L248.233 33.0365C257.715 22.2088 271.422 16 285.839 16V21.8736C278.992 21.8736 272.179 30.2899 268.484 43.317L267.658 46.2293ZM254.963 34.4887C257.597 36.1449 260.522 37.5733 263.704 38.7565C265.622 32.9736 268.096 28.148 270.971 24.4514C265.012 26.5866 259.54 29.9924 254.963 34.4887Z" fill="#333333"/>
<path d="M265.638 42.5206C263.715 49.3019 262.609 57.1391 262.609 65.5004H309.069C309.069 57.1398 307.965 49.3025 306.041 42.5206C299.923 44.4319 293.074 45.5038 285.839 45.5038C278.607 45.5038 271.757 44.4319 265.638 42.5206Z" fill="black"/>
<path d="M312.026 68.4359H259.653V65.4997C259.653 57.1835 260.739 48.9627 262.793 41.7238L263.619 38.8108L266.526 39.7191C272.574 41.6085 279.074 42.5678 285.839 42.5678C292.607 42.5678 299.105 41.6085 305.154 39.7191L308.061 38.8108L308.887 41.7238C310.94 48.9634 312.025 57.1848 312.025 65.4997V68.4359H312.026ZM265.614 62.5636H306.066C305.881 56.8741 305.157 51.3033 303.94 46.1783C298.187 47.6802 292.113 48.4407 285.839 48.4407C279.568 48.4407 273.494 47.6802 267.74 46.177C266.523 51.3033 265.8 56.8741 265.614 62.5636Z" fill="#333333"/>
<path d="M265.491 87.964C271.646 86.0236 278.549 84.9358 285.839 84.9358C293.131 84.9358 300.033 86.0242 306.189 87.964C308.023 81.3014 309.069 73.647 309.069 65.5004H262.609C262.61 73.647 263.657 81.3014 265.491 87.964Z" fill="black"/>
<path d="M308.229 91.6871L305.295 90.7623C299.211 88.8444 292.665 87.8719 285.84 87.8719C279.016 87.8719 272.47 88.8451 266.386 90.7623L263.452 91.6871L262.64 88.7384C260.687 81.6432 259.653 73.6079 259.653 65.5004V62.5636H312.026V65.5004C312.026 73.6079 310.994 81.6425 309.04 88.7378L308.229 91.6871ZM285.839 81.999C292.162 81.999 298.279 82.7694 304.066 84.2938C305.206 79.3192 305.887 73.9285 306.065 68.4359H265.614C265.794 73.9299 266.474 79.3199 267.614 84.2938C273.401 82.7694 279.517 81.999 285.839 81.999Z" fill="#333333"/>
<path d="M265.492 87.964C269.448 102.329 277.076 112.063 285.84 112.063C294.606 112.063 302.233 102.329 306.191 87.964C300.035 86.0235 293.132 84.9358 285.84 84.9358C278.551 84.9358 271.647 86.0235 265.492 87.964Z" fill="black"/>
<path d="M285.84 115C275.841 115 267.168 105.183 262.64 88.7383L261.891 86.0175L264.597 85.1655C271.261 83.0648 278.408 81.9995 285.84 81.9995C293.273 81.9995 300.42 83.0648 307.084 85.1655L309.791 86.0175L309.042 88.7383C304.512 105.183 295.84 115 285.84 115ZM269.174 89.958C272.991 101.696 279.377 109.128 285.841 109.128C292.305 109.128 298.691 101.696 302.508 89.958C297.227 88.5734 291.634 87.8724 285.841 87.8724C280.047 87.8724 274.454 88.5734 269.174 89.958Z" fill="#333333"/>
<path d="M285.841 18.9375C277.183 18.9375 269.635 28.4408 265.641 42.5213C271.759 44.4326 278.608 45.5045 285.841 45.5045C293.076 45.5045 299.926 44.4326 306.043 42.5213C302.048 28.4389 294.501 18.9375 285.841 18.9375Z" fill="black"/>
<path d="M285.84 48.4406C278.472 48.4406 271.377 47.3919 264.752 45.3217L262.016 44.4664L262.794 41.7244C267.364 25.6167 275.98 16 285.84 16C295.702 16 304.318 25.6167 308.889 41.7244L309.667 44.4664L306.929 45.3217C300.306 47.3919 293.21 48.4406 285.84 48.4406ZM269.349 40.5246C274.581 41.8814 280.115 42.5684 285.841 42.5684C291.568 42.5684 297.102 41.8814 302.335 40.5246C298.503 29.1 292.187 21.8743 285.841 21.8743C279.496 21.8736 273.182 29.1 269.349 40.5246Z" fill="#333333"/>
</g>
<path d="M187.54 308.165C173.114 341.072 158.689 373.977 144.262 406.883C145.383 406.441 146.501 406 147.623 405.558C114.619 391.357 81.615 377.156 48.6107 362.955C45.5931 361.656 43.5487 366.319 46.5668 367.617C79.5714 381.819 112.575 396.019 145.578 410.22C146.853 410.768 148.382 410.165 148.939 408.895C163.365 375.989 177.791 343.084 192.217 310.177C193.536 307.169 188.859 305.156 187.54 308.165Z" fill="black"/>
<g filter="url(#filter1_d_729_183)">
<path d="M71.0011 354.324C72.2916 357.596 72.9204 361.092 72.8518 364.612C72.7832 368.132 72.0186 371.608 70.6014 374.84C69.1843 378.073 67.1425 380.999 64.5926 383.451C62.0427 385.904 59.0346 387.835 55.7401 389.134C49.0865 391.758 41.6702 391.65 35.1226 388.832C28.575 386.015 23.4324 380.72 20.8263 374.111C18.2202 367.503 18.364 360.123 21.226 353.595C24.088 347.066 29.4338 341.925 36.0874 339.301C39.3819 338.002 42.8983 337.36 46.4359 337.411C49.9735 337.463 53.4629 338.208 56.7049 339.603C59.9469 340.998 62.8781 343.016 65.3311 345.542C67.784 348.068 69.7107 351.052 71.0011 354.324Z" fill="black"/>
</g>
<g filter="url(#filter2_d_729_183)">
<path d="M171.488 399.006C174.095 405.614 173.951 412.994 171.089 419.522C168.227 426.05 162.881 431.191 156.228 433.815C149.575 436.439 142.158 436.33 135.611 433.513C129.064 430.696 123.921 425.401 121.315 418.793C118.709 412.185 118.853 404.805 121.715 398.277C124.577 391.749 129.922 386.607 136.576 383.983C143.229 381.359 150.645 381.468 157.193 384.285C163.74 387.103 168.882 392.398 171.488 399.006Z" fill="#333333"/>
</g>
<path d="M330.966 251.603C316.541 284.509 302.114 317.415 287.689 350.32C288.809 349.879 289.928 349.437 291.048 348.996C258.045 334.795 225.042 320.594 192.037 306.392C189.019 305.093 186.974 309.757 189.993 311.055C222.998 325.257 256 339.457 289.005 353.658C290.278 354.206 291.808 353.603 292.364 352.333C306.791 319.427 321.216 286.522 335.643 253.615C336.962 250.606 332.287 248.593 330.966 251.603Z" fill="black"/>
<path d="M332.853 254.714C365.855 268.915 398.86 283.115 431.864 297.316C434.881 298.615 436.924 293.953 433.907 292.654C400.904 278.453 367.9 264.253 334.896 250.052C331.877 248.753 329.833 253.415 332.853 254.714Z" fill="black"/>
<g filter="url(#filter3_d_729_183)">
<path d="M216.176 297.072C218.782 303.68 218.638 311.06 215.776 317.588C212.914 324.116 207.569 329.257 200.915 331.881C197.621 333.18 194.105 333.822 190.567 333.77C187.03 333.719 183.54 332.974 180.299 331.579C177.057 330.184 174.126 328.166 171.673 325.64C169.22 323.115 167.293 320.131 166.003 316.859C164.712 313.586 164.084 310.091 164.152 306.57C164.221 303.05 164.985 299.575 166.402 296.343C167.82 293.11 169.861 290.184 172.411 287.732C174.961 285.279 177.969 283.348 181.263 282.049C187.917 279.425 195.333 279.534 201.88 282.351C208.428 285.169 213.57 290.464 216.176 297.072Z" fill="black"/>
</g>
<g filter="url(#filter4_d_729_183)">
<path d="M458.342 285.88C463.768 299.64 456.935 315.226 443.082 320.689C429.227 326.153 413.594 319.428 408.167 305.667C402.741 291.907 409.574 276.321 423.43 270.856C437.283 265.393 452.915 272.119 458.342 285.88Z" fill="black"/>
</g>
<g filter="url(#filter5_d_729_183)">
<path d="M359.602 240.509C362.208 247.117 362.064 254.497 359.202 261.025C356.34 267.553 350.995 272.695 344.341 275.319C337.688 277.943 330.272 277.834 323.724 275.017C317.177 272.199 312.035 266.904 309.429 260.296C306.823 253.688 306.966 246.308 309.828 239.78C312.69 233.252 318.036 228.111 324.689 225.487C331.343 222.863 338.759 222.972 345.306 225.789C351.853 228.606 356.996 233.901 359.602 240.509Z" fill="#333333"/>
</g>
<g filter="url(#filter6_d_729_183)">
<path d="M314.916 342.443C320.342 356.202 313.509 371.789 299.655 377.252C285.8 382.716 270.168 375.99 264.741 362.23C259.315 348.47 266.147 332.884 280.003 327.42C293.856 321.956 309.489 328.682 314.916 342.443Z" fill="black"/>
</g>
<g filter="url(#filter7_d_729_183)">
<path d="M71.1876 116.815V121.624C66.4279 122.357 62.0351 124.186 58.2672 126.833L54.7734 123.363C54.0597 122.654 52.9032 122.654 52.1896 123.363L47.7702 127.753C47.0566 128.461 47.0566 129.61 47.7702 130.319L51.2062 133.732C48.4802 137.433 46.5798 141.77 45.7663 146.477H40.8271C39.8177 146.477 39 147.29 39 148.291V154.499C39 155.501 39.8177 156.314 40.8271 156.314H45.6739C46.4067 161.043 48.2439 165.408 50.9062 169.153L47.4209 172.615C46.7067 173.324 46.7067 174.473 47.4209 175.181L51.8402 179.57C52.5539 180.28 53.7103 180.28 54.424 179.57L57.8451 176.173C61.7048 178.984 66.25 180.92 71.1876 181.68V186.468C71.1876 187.469 72.0054 188.281 73.0148 188.281H79.265C80.2738 188.281 81.0921 187.469 81.0921 186.468V181.6C85.8444 180.795 90.2218 178.905 93.9573 176.191L97.3603 179.571C98.074 180.28 99.2305 180.28 99.9441 179.571L104.363 175.182C105.077 174.473 105.077 173.324 104.363 172.615L100.903 169.178C103.574 165.427 105.418 161.053 106.153 156.314H110.958C111.966 156.314 112.784 155.501 112.784 154.499V148.291C112.784 147.289 111.966 146.477 110.958 146.477H106.061C105.245 141.76 103.339 137.414 100.603 133.706L104.013 130.319C104.727 129.61 104.727 128.461 104.013 127.753L99.5936 123.363C98.88 122.655 97.7235 122.655 97.0094 123.363L93.5341 126.815C89.8926 124.261 85.6665 122.479 81.0916 121.705V116.815C81.0916 115.812 80.2733 115 79.2644 115H73.0142C72.0054 115.001 71.1876 115.812 71.1876 116.815ZM93.9998 151.653C93.9998 161.573 85.9023 169.616 75.9134 169.616C65.9245 169.616 57.8276 161.573 57.8276 151.653C57.8276 141.732 65.9251 133.69 75.9134 133.69C85.9023 133.69 93.9998 141.732 93.9998 151.653Z" fill="black"/>
</g>
<g filter="url(#filter8_d_729_183)">
<path d="M107.833 173.656V177.594C104.367 178.195 100.461 179.692 97.3757 181.86L94.5769 179.018C93.9917 178.437 93.0758 178.437 92.4917 179.018L88.8885 182.612C88.3044 183.192 88.3113 184.132 88.8959 184.713L91.7127 187.349C89.4805 190.38 87.929 194.184 87.2631 197.627H83.2181C82.3914 197.627 81.5869 198.607 81.5869 199.428V204.511C81.5869 205.332 82.3914 205.989 83.2181 205.989H87.1861C87.7867 209.923 89.2904 213.439 91.4711 216.506L88.6166 219.342C88.032 219.923 88.032 220.865 88.6166 221.445L92.2347 225.039C92.8193 225.619 93.766 225.619 94.3501 225.039L97.0295 222.258C100.189 224.559 103.87 226.144 107.832 226.767V230.687C107.832 231.508 108.746 232.056 109.572 232.056H114.689C115.516 232.056 116.25 231.508 116.25 230.687V226.702C120.211 226.043 123.694 224.495 126.752 222.273L129.522 225.04C130.106 225.621 131.046 225.621 131.629 225.04L135.245 221.446C135.829 220.866 135.826 219.925 135.243 219.346L132.408 216.527C134.596 213.455 136.104 209.924 136.706 205.989H140.639C141.466 205.989 142 205.332 142 204.511V199.429C142 198.608 141.465 197.628 140.639 197.628H136.63C135.962 194.185 134.402 190.364 132.161 187.329L134.954 184.635C135.538 184.053 135.538 183.153 134.954 182.573L131.336 178.999C130.752 178.419 129.804 178.428 129.22 179.009L126.406 181.84C123.425 179.749 120.212 178.295 116.251 177.661V173.656C116.251 172.836 115.517 172.053 114.689 172.053H109.573C108.748 172.053 107.833 172.835 107.833 173.656ZM126.756 202.181C126.756 210.304 120.126 216.889 111.947 216.889C103.769 216.889 97.1383 210.304 97.1383 202.181C97.1383 194.058 103.769 187.473 111.947 187.473C120.126 187.473 126.756 194.058 126.756 202.181Z" fill="#333333"/>
</g>
<defs>
<filter id="filter0_d_729_183" x="218" y="0" width="135.679" height="135" filterUnits="userSpaceOnUse" color-interpolation-filters="sRGB">
<feFlood flood-opacity="0" result="BackgroundImageFix"/>
<feColorMatrix in="SourceAlpha" type="matrix" values="0 0 0 0 0 0 0 0 0 0 0 0 0 0 0 0 0 0 127 0" result="hardAlpha"/>
<feOffset dy="2"/>
<feGaussianBlur stdDeviation="9"/>
<feComposite in2="hardAlpha" operator="out"/>
<feColorMatrix type="matrix" values="0 0 0 0 0 0 0 0 0 0 0 0 0 0 0 0 0 0 0.18 0"/>
<feBlend mode="normal" in2="BackgroundImageFix" result="effect1_dropShadow_729_183"/>
<feBlend mode="normal" in="SourceGraphic" in2="effect1_dropShadow_729_183" result="shape"/>
</filter>
<filter id="filter1_d_729_183" x="0.970703" y="321.409" width="89.8857" height="89.6181" filterUnits="userSpaceOnUse" color-interpolation-filters="sRGB">
<feFlood flood-opacity="0" result="BackgroundImageFix"/>
<feColorMatrix in="SourceAlpha" type="matrix" values="0 0 0 0 0 0 0 0 0 0 0 0 0 0 0 0 0 0 127 0" result="hardAlpha"/>
<feOffset dy="2"/>
<feGaussianBlur stdDeviation="9"/>
<feComposite in2="hardAlpha" operator="out"/>
<feColorMatrix type="matrix" values="0 0 0 0 0 0 0 0 0 0 0 0 0 0 0 0 0 0 0.18 0"/>
<feBlend mode="normal" in2="BackgroundImageFix" result="effect1_dropShadow_729_183"/>
<feBlend mode="normal" in="SourceGraphic" in2="effect1_dropShadow_729_183" result="shape"/>
</filter>
<filter id="filter2_d_729_183" x="101.46" y="366.091" width="89.8838" height="89.6165" filterUnits="userSpaceOnUse" color-interpolation-filters="sRGB">
<feFlood flood-opacity="0" result="BackgroundImageFix"/>
<feColorMatrix in="SourceAlpha" type="matrix" values="0 0 0 0 0 0 0 0 0 0 0 0 0 0 0 0 0 0 127 0" result="hardAlpha"/>
<feOffset dy="2"/>
<feGaussianBlur stdDeviation="9"/>
<feComposite in2="hardAlpha" operator="out"/>
<feColorMatrix type="matrix" values="0 0 0 0 0 0 0 0 0 0 0 0 0 0 0 0 0 0 0.18 0"/>
<feBlend mode="normal" in2="BackgroundImageFix" result="effect1_dropShadow_729_183"/>
<feBlend mode="normal" in="SourceGraphic" in2="effect1_dropShadow_729_183" result="shape"/>
</filter>
<filter id="filter3_d_729_183" x="146.147" y="264.157" width="89.8848" height="89.6165" filterUnits="userSpaceOnUse" color-interpolation-filters="sRGB">
<feFlood flood-opacity="0" result="BackgroundImageFix"/>
<feColorMatrix in="SourceAlpha" type="matrix" values="0 0 0 0 0 0 0 0 0 0 0 0 0 0 0 0 0 0 127 0" result="hardAlpha"/>
<feOffset dy="2"/>
<feGaussianBlur stdDeviation="9"/>
<feComposite in2="hardAlpha" operator="out"/>
<feColorMatrix type="matrix" values="0 0 0 0 0 0 0 0 0 0 0 0 0 0 0 0 0 0 0.18 0"/>
<feBlend mode="normal" in2="BackgroundImageFix" result="effect1_dropShadow_729_183"/>
<feBlend mode="normal" in="SourceGraphic" in2="effect1_dropShadow_729_183" result="shape"/>
</filter>
<filter id="filter4_d_729_183" x="388.305" y="252.957" width="89.9004" height="89.6313" filterUnits="userSpaceOnUse" color-interpolation-filters="sRGB">
<feFlood flood-opacity="0" result="BackgroundImageFix"/>
<feColorMatrix in="SourceAlpha" type="matrix" values="0 0 0 0 0 0 0 0 0 0 0 0 0 0 0 0 0 0 127 0" result="hardAlpha"/>
<feOffset dy="2"/>
<feGaussianBlur stdDeviation="9"/>
<feComposite in2="hardAlpha" operator="out"/>
<feColorMatrix type="matrix" values="0 0 0 0 0 0 0 0 0 0 0 0 0 0 0 0 0 0 0.18 0"/>
<feBlend mode="normal" in2="BackgroundImageFix" result="effect1_dropShadow_729_183"/>
<feBlend mode="normal" in="SourceGraphic" in2="effect1_dropShadow_729_183" result="shape"/>
</filter>
<filter id="filter5_d_729_183" x="289.573" y="207.594" width="89.8848" height="89.6165" filterUnits="userSpaceOnUse" color-interpolation-filters="sRGB">
<feFlood flood-opacity="0" result="BackgroundImageFix"/>
<feColorMatrix in="SourceAlpha" type="matrix" values="0 0 0 0 0 0 0 0 0 0 0 0 0 0 0 0 0 0 127 0" result="hardAlpha"/>
<feOffset dy="2"/>
<feGaussianBlur stdDeviation="9"/>
<feComposite in2="hardAlpha" operator="out"/>
<feColorMatrix type="matrix" values="0 0 0 0 0 0 0 0 0 0 0 0 0 0 0 0 0 0 0.18 0"/>
<feBlend mode="normal" in2="BackgroundImageFix" result="effect1_dropShadow_729_183"/>
<feBlend mode="normal" in="SourceGraphic" in2="effect1_dropShadow_729_183" result="shape"/>
</filter>
<filter id="filter6_d_729_183" x="244.879" y="309.52" width="89.8994" height="89.6313" filterUnits="userSpaceOnUse" color-interpolation-filters="sRGB">
<feFlood flood-opacity="0" result="BackgroundImageFix"/>
<feColorMatrix in="SourceAlpha" type="matrix" values="0 0 0 0 0 0 0 0 0 0 0 0 0 0 0 0 0 0 127 0" result="hardAlpha"/>
<feOffset dy="2"/>
<feGaussianBlur stdDeviation="9"/>
<feComposite in2="hardAlpha" operator="out"/>
<feColorMatrix type="matrix" values="0 0 0 0 0 0 0 0 0 0 0 0 0 0 0 0 0 0 0.18 0"/>
<feBlend mode="normal" in2="BackgroundImageFix" result="effect1_dropShadow_729_183"/>
<feBlend mode="normal" in="SourceGraphic" in2="effect1_dropShadow_729_183" result="shape"/>
</filter>
<filter id="filter7_d_729_183" x="21" y="99" width="109.784" height="109.281" filterUnits="userSpaceOnUse" color-interpolation-filters="sRGB">
<feFlood flood-opacity="0" result="BackgroundImageFix"/>
<feColorMatrix in="SourceAlpha" type="matrix" values="0 0 0 0 0 0 0 0 0 0 0 0 0 0 0 0 0 0 127 0" result="hardAlpha"/>
<feOffset dy="2"/>
<feGaussianBlur stdDeviation="9"/>
<feComposite in2="hardAlpha" operator="out"/>
<feColorMatrix type="matrix" values="0 0 0 0 0 0 0 0 0 0 0 0 0 0 0 0 0 0 0.18 0"/>
<feBlend mode="normal" in2="BackgroundImageFix" result="effect1_dropShadow_729_183"/>
<feBlend mode="normal" in="SourceGraphic" in2="effect1_dropShadow_729_183" result="shape"/>
</filter>
<filter id="filter8_d_729_183" x="63.5869" y="156.053" width="96.4131" height="96.0027" filterUnits="userSpaceOnUse" color-interpolation-filters="sRGB">
<feFlood flood-opacity="0" result="BackgroundImageFix"/>
<feColorMatrix in="SourceAlpha" type="matrix" values="0 0 0 0 0 0 0 0 0 0 0 0 0 0 0 0 0 0 127 0" result="hardAlpha"/>
<feOffset dy="2"/>
<feGaussianBlur stdDeviation="9"/>
<feComposite in2="hardAlpha" operator="out"/>
<feColorMatrix type="matrix" values="0 0 0 0 0 0 0 0 0 0 0 0 0 0 0 0 0 0 0.18 0"/>
<feBlend mode="normal" in2="BackgroundImageFix" result="effect1_dropShadow_729_183"/>
<feBlend mode="normal" in="SourceGraphic" in2="effect1_dropShadow_729_183" result="shape"/>
</filter>
</defs>
</svg>
