<svg width="256" height="256" viewBox="0 0 256 256" fill="none" xmlns="http://www.w3.org/2000/svg">
<g clip-path="url(#clip0_1408_59)">
<path d="M19.3198 108.959C18.8198 108.959 18.6968 108.709 18.9458 108.336L21.5628 104.971C21.8128 104.597 22.4348 104.348 22.9328 104.348H67.4298C67.9298 104.348 68.0528 104.722 67.8038 105.096L65.6838 108.336C65.4338 108.71 64.8118 109.084 64.4378 109.084L19.3178 108.959H19.3198ZM0.499792 120.426C-0.000208229 120.426 -0.123208 120.176 0.125792 119.803L2.74279 116.438C2.99279 116.064 3.61479 115.815 4.11279 115.815H60.9498C61.4498 115.815 61.6978 116.189 61.5728 116.563L60.5758 119.553C60.4508 120.053 59.9528 120.301 59.4538 120.301L0.499792 120.426ZM30.6628 131.893C30.1628 131.893 30.0398 131.519 30.2888 131.145L32.0338 128.029C32.2838 127.655 32.7818 127.281 33.2798 127.281H58.2078C58.7078 127.281 58.9558 127.655 58.9558 128.153L58.7058 131.143C58.7058 131.643 58.2058 132.015 57.8338 132.015L30.6618 131.89L30.6628 131.893ZM160.043 106.715L139.1 112.199C137.23 112.699 137.106 112.822 135.485 110.953C133.615 108.833 132.245 107.453 129.627 106.217C121.775 102.353 114.171 103.475 107.067 108.087C98.5908 113.571 94.2288 121.673 94.3528 131.769C94.4778 141.739 101.333 149.967 111.18 151.339C119.656 152.461 126.76 149.469 132.37 143.113C133.492 141.743 134.49 140.246 135.735 138.501H111.68C109.063 138.501 108.44 136.881 109.312 134.761C110.932 130.897 113.924 124.416 115.669 121.175C116.043 120.427 116.915 119.181 118.785 119.181H164.155C163.905 122.546 163.905 125.911 163.407 129.277C162.037 138.251 158.671 146.477 153.187 153.707C144.213 165.547 132.497 172.902 117.664 174.897C105.449 176.517 94.1068 174.149 84.1338 166.671C74.8998 159.689 69.6748 150.465 68.3038 138.999C66.6838 125.413 70.6718 113.199 78.8988 102.479C87.7488 90.8868 99.4648 83.5328 113.799 80.9158C125.515 78.7958 136.733 80.1678 146.829 87.0228C153.435 91.3848 158.171 97.3678 161.289 104.598C162.037 105.72 161.539 106.343 160.043 106.718V106.715Z" fill="#00ACD7"/>
<path d="M201.297 175.643C189.955 175.393 179.609 172.143 170.884 164.673C163.53 158.316 158.918 150.213 157.424 140.617C155.18 126.532 159.044 114.067 167.52 102.975C176.62 91.009 187.587 84.777 202.42 82.16C215.134 79.916 227.1 81.163 237.943 88.517C247.79 95.247 253.897 104.347 255.518 116.312C257.638 133.139 252.776 146.849 241.184 158.566C232.958 166.916 222.862 172.152 211.27 174.52C207.905 175.143 204.54 175.268 201.3 175.642L201.297 175.643ZM230.962 125.288C230.837 123.668 230.837 122.421 230.588 121.175C228.344 108.835 217.002 101.855 205.161 104.598C193.569 107.215 186.091 114.568 183.349 126.286C181.105 136.008 185.842 145.856 194.816 149.843C201.671 152.833 208.526 152.46 215.133 149.095C224.98 143.995 230.339 136.008 230.963 125.288H230.962Z" fill="#00ACD7"/>
</g>
<defs>
<clipPath id="clip0_1408_59">
<rect width="256" height="256" fill="white"/>
</clipPath>
</defs>
</svg>
