<svg width="827" height="512" viewBox="0 0 827 512" fill="none" xmlns="http://www.w3.org/2000/svg">
<rect y="352" width="160" height="70" fill="#003E86"/>
<rect x="151" y="176" width="160" height="160" rx="80" fill="#DDF2FF"/>
<rect x="80" y="264" width="160" height="70" fill="#3A95E9"/>
<rect x="258" y="264" width="160" height="70" fill="#003E86"/>
<rect x="178" y="352" width="160" height="160" rx="80" fill="#DDF2FF"/>
<rect x="436" y="264" width="160" height="160" rx="80" fill="#DDF2FF"/>
<rect x="356" y="352" width="160" height="70" fill="#3A95E9"/>
<rect x="409" y="88" width="160" height="160" rx="80" fill="#DDF2FF"/>
<rect x="667" width="160" height="160" rx="80" fill="#DDF2FF"/>
<rect x="311" width="160" height="70" fill="#3A95E9"/>
<rect x="489" width="160" height="70" fill="#003E86"/>
<rect x="231" y="88" width="160" height="70" fill="#003E86"/>
<rect x="587" y="88" width="160" height="70" fill="#0076C7"/>
<rect x="277" y="176" width="160" height="70" fill="#3A95E9"/>
<rect x="455" y="176" width="160" height="70" fill="#003E86"/>
</svg>
